<?xml version="1.0" encoding="utf-8"?>
<!-- Generator: Adobe Illustrator 18.1.1, SVG Export Plug-In . SVG Version: 6.00 Build 0)  -->
<svg version="1.1" id="Layer_1" xmlns="http://www.w3.org/2000/svg" xmlns:xlink="http://www.w3.org/1999/xlink" x="0px" y="0px"
	 viewBox="0 0 3000 3000" enable-background="new 0 0 3000 3000" xml:space="preserve">
<g>
	<path fill="none" stroke="#000000" stroke-width="60" stroke-linecap="round" stroke-linejoin="round" stroke-miterlimit="10" d="
		M2127,877.5c0,0-18-228,294-243c312-15,315-270,315-270"/>
	<g>
		
			<linearGradient id="SVGID_1_" gradientUnits="userSpaceOnUse" x1="1409.7013" y1="2786.1787" x2="1497.9777" y2="2786.1787" gradientTransform="matrix(0.7071 0.7071 -0.7071 0.7071 1501.7354 -619.9622)">
			<stop  offset="0" style="stop-color:#B9B9BA"/>
			<stop  offset="1" style="stop-color:#4B4C4E"/>
		</linearGradient>
		<path fill="url(#SVGID_1_)" d="M732,2268.2l-171.6,140.4L425.5,2519c0,0,0,0-0.1,0c-12.2,4.3-6.6-6.7-6.6-6.7l110.3-134.9
			l140.4-171.6L732,2268.2z"/>
		
			<linearGradient id="SVGID_2_" gradientUnits="userSpaceOnUse" x1="1367.1002" y1="2158.6289" x2="1540.5696" y2="2158.6289" gradientTransform="matrix(0.7071 0.7071 -0.7071 0.7071 1501.7354 -619.9622)">
			<stop  offset="0" style="stop-color:#D2D3D4"/>
			<stop  offset="1" style="stop-color:#636566"/>
		</linearGradient>
		<path fill="url(#SVGID_2_)" d="M1331,1606.8c33.9,33.9,47.4,75.3,30.1,92.5l-592.8,592.8c-17.2,17.2-58.6,3.7-92.5-30.1l0,0
			c-33.9-33.9-47.4-75.3-30.1-92.5l592.8-592.8C1255.7,1559.5,1297.1,1573,1331,1606.8L1331,1606.8z"/>
		
			<linearGradient id="SVGID_3_" gradientUnits="userSpaceOnUse" x1="1310.2439" y1="1151.0527" x2="1597.4259" y2="1151.0527" gradientTransform="matrix(0.7071 0.7071 -0.7071 0.7071 1501.7354 -619.9622)">
			<stop  offset="0" style="stop-color:#2075BC"/>
			<stop  offset="1" style="stop-color:#10456F"/>
		</linearGradient>
		<path fill="url(#SVGID_3_)" d="M1248.2,1649c-44.9-44.9-55.1-107.3-22.9-139.6l777.9-777.9c32.2-32.2,94.7-22,139.6,22.9
			l40.6,40.6c44.9,44.9,55.1,107.3,22.9,139.6l-777.9,777.9c-32.2,32.2-94.7,22-139.6-22.9L1248.2,1649z"/>
		
			<linearGradient id="SVGID_4_" gradientUnits="userSpaceOnUse" x1="1280.885" y1="1417.1775" x2="1626.7848" y2="1417.1775" gradientTransform="matrix(0.7071 0.7071 -0.7071 0.7071 1501.7354 -619.9622)">
			<stop  offset="0" style="stop-color:#4E4446"/>
			<stop  offset="1" style="stop-color:#231F20"/>
		</linearGradient>
		<path fill="url(#SVGID_4_)" d="M1453.4,1597.6c36.3,36.3,84.2,47.2,107,24.4l179.1-179.1c22.8-22.8,11.9-70.8-24.4-107
			L1602,1222.7c-36.3-36.3-84.2-47.2-107-24.4l-179.1,179.1c-22.8,22.8-11.9,70.8,24.4,107L1453.4,1597.6z"/>
		<g id="XMLID_1_">
			<g>
				<path fill="#2B3C90" d="M1449.2,1838.2C1449.1,1838.3,1449.1,1838.3,1449.2,1838.2l-349.8-349.7c0,0,0,0,0.1-0.1l3-3
					c22.3-22.3,60.5-20.3,85.2,4.5l260.1,260.1c24.8,24.8,26.8,62.9,4.5,85.2L1449.2,1838.2z"/>
				<path fill="#282561" d="M1099.3,1488.5l349.8,349.8c-22.3,22.2-60.4,20.2-85.2-4.6l-260.1-260.1
					C1079.1,1548.9,1077.1,1510.8,1099.3,1488.5z"/>
			</g>
			<g>
			</g>
		</g>
		<circle fill="#595A5C" cx="719.9" cy="2218" r="26.5"/>
		
			<radialGradient id="SVGID_5_" cx="1453.8348" cy="1132.3555" r="31.1621" gradientTransform="matrix(0.7071 0.7071 -0.7071 0.7071 1501.7354 -619.9622)" gradientUnits="userSpaceOnUse">
			<stop  offset="0" style="stop-color:#EC6067"/>
			<stop  offset="1" style="stop-color:#EC2227"/>
		</radialGradient>
		<circle fill="url(#SVGID_5_)" stroke="#231F20" stroke-miterlimit="10" cx="1729.1" cy="1208.8" r="31.2"/>
		
			<linearGradient id="SVGID_6_" gradientUnits="userSpaceOnUse" x1="1440.5677" y1="2559.7346" x2="1466.7089" y2="2559.7346" gradientTransform="matrix(0.7071 0.7071 -0.7071 0.7071 1501.7354 -619.9622)">
			<stop  offset="0" style="stop-color:#B9B9BA"/>
			<stop  offset="1" style="stop-color:#4B4C4E"/>
		</linearGradient>
		
			<line fill="url(#SVGID_6_)" stroke="#231F20" stroke-width="4" stroke-linecap="round" stroke-miterlimit="10" x1="700.9" y1="2218.1" x2="738.3" y2="2217.7"/>
		
			<line fill="#3A170D" stroke="#3B2416" stroke-width="0.75" stroke-linecap="round" stroke-linejoin="round" stroke-miterlimit="10" x1="1206.5" y1="1731.2" x2="1125.5" y2="1812.3"/>
		
			<line fill="#3A170D" stroke="#3B2416" stroke-width="0.75" stroke-linecap="round" stroke-linejoin="round" stroke-miterlimit="10" x1="1227.3" y1="1752" x2="1146.2" y2="1833"/>
		
			<line fill="#3A170D" stroke="#3B2416" stroke-width="0.75" stroke-linecap="round" stroke-linejoin="round" stroke-miterlimit="10" x1="1185.8" y1="1710.5" x2="1104.8" y2="1791.5"/>
		
			<line fill="#3A170D" stroke="#5C3821" stroke-width="0.75" stroke-linecap="round" stroke-linejoin="round" stroke-miterlimit="10" x1="1165.1" y1="1689.8" x2="1084" y2="1770.8"/>
		
			<line fill="#3A170D" stroke="#2E1E10" stroke-width="0.75" stroke-linecap="round" stroke-linejoin="round" stroke-miterlimit="10" x1="1248" y1="1772.7" x2="1167" y2="1853.7"/>
	</g>
	
		<radialGradient id="SVGID_7_" cx="834.7166" cy="2822.1641" r="312.1857" gradientTransform="matrix(3.4915 0 0 0.2899 -1365.6776 1729.8195)" gradientUnits="userSpaceOnUse">
		<stop  offset="0" style="stop-color:#A7A9AC"/>
		<stop  offset="1" style="stop-color:#EBECED"/>
	</radialGradient>
	<ellipse fill="url(#SVGID_7_)" cx="1548.7" cy="2548" rx="1124.4" ry="87.6"/>
	<linearGradient id="SVGID_8_" gradientUnits="userSpaceOnUse" x1="397.1364" y1="1679.41" x2="397.1364" y2="2490.4285">
		<stop  offset="0" style="stop-color:#F2CFCF"/>
		<stop  offset="1" style="stop-color:#977D7C"/>
	</linearGradient>
	<path opacity="0.66" fill="url(#SVGID_8_)" d="M410.1,2490.4c0,0-54.2-102.1-20.6-370.5s-29.9-440.5-29.9-440.5
		s88.6,138.3,73.3,395.9C417.6,2332.9,395.1,2175.4,410.1,2490.4z"/>
	<linearGradient id="SVGID_9_" gradientUnits="userSpaceOnUse" x1="384.2254" y1="1795.6185" x2="384.2254" y2="2441.3196">
		<stop  offset="0" style="stop-color:#FBD6D6"/>
		<stop  offset="1" style="stop-color:#977D7C"/>
	</linearGradient>
	<path opacity="0.66" fill="url(#SVGID_9_)" d="M394.5,2441.3c0,0-43.2-81.3-16.4-295c26.8-213.7-23.8-350.7-23.8-350.7
		s70.6,110.1,58.4,315.2S382.6,2190.5,394.5,2441.3z"/>
</g>
</svg>
